<svg xmlns="http://www.w3.org/2000/svg" viewBox="0 0 96.3 97.3"><defs><style>.f{fill:#115ffd;}</style></defs><g id="a"/><g id="b"><g id="c"><g id="d" transform="translate(0 0)"><path id="e" class="f" d="M96.3,48.7c0-8.9-2.2-17.3-6.4-24.7-4.2-7.3-10-13.3-17.3-17.5S57.2,0,48.3,0,31,2.3,23.6,6.5c-7.3,4.2-13.1,10.1-17.3,17.5C2.1,31.3,0,39.6,0,48.7s1.9,17.5,5.8,24.8,9.3,13.1,16.1,17.3c7,4.4,14.5,6.5,22.9,6.5h43.2c2.3,0,4.2-.9,5.9-2.4,1.6-1.6,2.4-3.5,2.4-5.9V48.7h0ZM21.1,65.5c-2.8-4.9-4-10.5-4-16.8s1.2-11.7,4-16.8c2.8-4.9,6.5-8.9,11.2-11.7,4.7-2.8,10-4.4,15.9-4.4s11,1.6,15.7,4.4c4.7,2.8,8.4,6.8,11.2,11.7,2.6,5.1,4,10.7,4,16.8s-1.4,11.9-4,16.8c-2.8,4.9-6.5,8.9-11.2,11.7-4.7,2.8-10,4.2-15.7,4.2s-11.2-1.4-15.9-4.2c-4.7-2.8-8.4-6.8-11.2-11.7Z"/></g></g></g></svg>