    <svg
      id="svg121367"
      xmlns="http://www.w3.org/2000/svg"
      xmlnsXlink="http://www.w3.org/1999/xlink"
      x="0px"
      y="0px"
      viewBox="0 0 519 128.1"
      xmlSpace="preserve"
      fill="#2b65f9"
    >
      <style>{".st1{fill:#2b65f9}"}</style>
      <g id="logo-group">
        <g id="logo-center">
          <defs>
            <path
              id="SVGID_1_"
              d="M-251.5 -317.5L-250.5 -317.5 -251.5 -316.5z"
            />
          </defs>
          <defs>
            <path
              id="SVGID_00000068648326826881372830000003343821131923627167_"
              d="M-253.5 -319.5L-254.5 -319.5 -253.5 -320.5z"
            />
          </defs>
          <clipPath id="SVGID_00000136409801764062892470000000815947702237106365_">
            <use xlinkHref="#SVGID_1_" overflow="visible" />
          </clipPath>
          <clipPath
            id="SVGID_00000109003352213782105820000001971594630997117883_"
            clipPath="url(#SVGID_00000136409801764062892470000000815947702237106365_)"
          >
            <use
              xlinkHref="#SVGID_00000068648326826881372830000003343821131923627167_"
              overflow="visible"
            />
          </clipPath>
          <g id="title">
            <path
              id="path121376"
              className="st1"
              d="M2.4 34.9C.7 36.6 0 38.7 0 41.4v77.9c0 2.6.7 4.7 2.4 6.5 1.7 1.7 3.8 2.4 6.5 2.4s4.7-.7 6.5-2.4c1.6-1.7 2.4-3.8 2.4-6.5V41.4c0-2.6-.9-4.7-2.4-6.5-1.7-1.6-3.8-2.4-6.5-2.4s-4.7.8-6.5 2.4z"
            />
            <path
              id="path121378"
              className="st1"
              d="M135.5 52.2c-3.7-6.6-8.7-11.9-15-15.4-6.1-3.1-12.8-4.9-20.1-5.1-.2 0-.5-.2-.5-.2H59.6c-2.4 0-4.4.9-5.9 2.4-1.7 1.7-2.4 3.7-2.4 5.9v79.4c0 2.6.7 4.7 2.4 6.5s3.8 2.4 6.5 2.4c2.6 0 4.7-.7 6.5-2.4 1.6-1.7 2.4-3.8 2.4-6.5V70.1c0-4.2 1-7.9 3.3-11.4 2.3-3.3 5.4-5.9 9.4-8 4-1.9 8.6-3 13.5-3 8.4 0 15 2.4 20.1 7.3 5.1 4.9 7.7 12.1 7.7 21.3v43c0 2.6.7 4.7 2.4 6.5s3.8 2.4 6.5 2.4c2.4 0 4.5-.7 6.3-2.4s2.6-3.8 2.6-6.5v-43c.1-9.4-1.9-17.4-5.4-24.1z"
            />
            <path
              id="path121380"
              className="st1"
              d="M174.5 35.9v58.2c0 6.5 1.2 12.2 4 17.3 2.6 5.2 6.3 9.3 11 12.2 4.7 3 10 4.4 15.7 4.4h3.1c3 0 5.4-.7 7.3-2.4 1.9-1.6 3-3.7 3-6.3 0-2.4-.9-4.5-2.3-6.3-1.4-1.6-3.1-2.4-5.2-2.4h-5.9c-3.8 0-7-1.6-9.4-4.7-2.6-3.1-3.8-7-3.8-11.7V51h14.9c2.4 0 4.4-.7 5.9-2.1 1.4-1.4 2.3-3.1 2.3-5.2 0-2.3-.9-4.2-2.3-5.6-1.6-1.4-3.5-2.1-5.9-2.1H192V10.7c0-2.4-.9-4.5-2.4-6.3-1.7-1.6-3.8-2.4-6.3-2.4-2.6 0-4.7.9-6.3 2.4-1.7 1.7-2.4 3.8-2.4 6.3l-.1 25.2z"
            />
            <path
              id="path121382"
              className="st1"
              d="M324.2 84.4c1.4-1.4 2.3-3.3 2.3-5.6 0-9.1-1.7-17.3-5.2-24.5-3.5-7-8.6-12.6-15-16.6-6.6-3.8-14.3-5.9-23.3-5.9-9.1 0-17.3 2.1-24.5 6.3-7.2 4.2-12.8 10-16.8 17.3-4 7.3-5.9 15.7-5.9 25 0 9.4 2.1 17.7 6.3 25 4.2 7.3 10.1 13.1 17.8 17.3 7.5 4.2 16.1 6.1 25.7 6.1 5.2 0 10.8-.9 16.8-3 5.9-1.9 10.8-4.5 14.9-7.7 1.7-1.4 2.8-3.1 2.8-5.2s-1-4.2-3.1-5.9c-1.4-1-3.1-1.7-5.2-1.7-2.3 0-4.2.7-5.8 1.9-2.4 1.9-5.6 3.5-9.4 4.7-3.8 1.4-7.3 1.9-10.8 1.9-8.9 0-16.4-2.4-22.6-7.5-6.1-4.9-9.8-11.5-11-19.8h66.5c2 0 3.9-.7 5.5-2.1zM262 53.8c5.2-4.5 12.2-7 20.8-7 7.7 0 13.8 2.4 18.7 7 4.7 4.7 7.7 11 8.7 18.7h-58.3c1.6-7.7 4.9-14 10.1-18.7z"
            />
            <path
              id="path121384"
              className="st1"
              d="M410.6 34.2c-3.5-1.7-8.4-2.8-14.5-2.8-5.9 0-11.4 1.2-16.4 3.5-5.2 2.4-9.4 5.6-12.9 9.6v-3.3c0-5.8-3-8.7-8.7-8.7-2.8 0-5.1.9-6.5 2.3-1.6 1.6-2.3 3.7-2.3 6.5v78.2c0 3 .7 5.2 2.3 6.6 1.4 1.4 3.7 2.1 6.5 2.1s5.1-.7 6.5-2.3c1.4-1.4 2.3-3.7 2.3-6.5V68.3c0-6.5 2.4-11.7 7.7-15.6 5.1-3.8 11.9-5.8 20.3-5.8 2.8 0 6.6.5 11.4 1.2 1 .3 1.9.3 2.6.3 3.5 0 5.9-1.7 7-5.6 0-.3.2-.9.2-1.7-.2-2.7-2-5-5.5-6.9z"
            />
            <path
              id="path121386"
              className="st1"
              d="M519 80.4c0-8.9-2.3-17.3-6.5-24.7-4.2-7.3-10-13.3-17.3-17.5-7.3-4.2-15.4-6.5-24.3-6.5-9.1 0-17.3 2.3-24.7 6.5-7.3 4.2-13.1 10.1-17.3 17.5-4.2 7.3-6.3 15.6-6.3 24.7s1.9 17.5 5.8 24.8 9.3 13.1 16.1 17.3c7 4.4 14.5 6.5 22.9 6.5H510.6c2.3 0 4.2-.9 5.9-2.4 1.6-1.6 2.4-3.5 2.4-5.9V80.4zm-75.3 16.8c-2.8-4.9-4-10.5-4-16.8 0-6.1 1.2-11.7 4-16.8 2.8-4.9 6.5-8.9 11.2-11.7 4.7-2.8 10-4.4 15.9-4.4 5.8 0 11 1.6 15.7 4.4 4.7 2.8 8.4 6.8 11.2 11.7 2.6 5.1 4 10.7 4 16.8 0 6.3-1.4 11.9-4 16.8-2.8 4.9-6.5 8.9-11.2 11.7-4.7 2.8-10 4.2-15.7 4.2-5.9 0-11.2-1.4-15.9-4.2-4.7-2.8-8.4-6.8-11.2-11.7z"
            />
          </g>
          <g>
            <defs>
              <path
                id="SVGID_00000116219905451379297000000009554349316497378997_"
                d="M-251.5 -317.5L-250.5 -317.5 -251.5 -316.5z"
              />
            </defs>
            <defs>
              <path
                id="SVGID_00000168831056424606673250000008644215110423872657_"
                d="M-253.5 -319.5L-254.5 -319.5 -253.5 -320.5z"
              />
            </defs>
            <clipPath id="SVGID_00000146487276986254167970000010337763638027365299_">
              <use
                xlinkHref="#SVGID_00000116219905451379297000000009554349316497378997_"
                overflow="visible"
              />
            </clipPath>
            <clipPath
              id="SVGID_00000060009959053797407010000012498803037640778932_"
              clipPath="url(#SVGID_00000146487276986254167970000010337763638027365299_)"
            >
              <use
                xlinkHref="#SVGID_00000168831056424606673250000008644215110423872657_"
                overflow="visible"
              />
            </clipPath>
          </g>
        </g>
      </g>
    </svg>
