<?xml version="1.0" standalone="no"?>
<!DOCTYPE svg PUBLIC "-//W3C//DTD SVG 20010904//EN"
 "http://www.w3.org/TR/2001/REC-SVG-20010904/DTD/svg10.dtd">
<svg version="1.0" xmlns="http://www.w3.org/2000/svg"
 width="97.000000pt" height="97.000000pt" viewBox="0 0 97.000000 97.000000"
 preserveAspectRatio="xMidYMid meet">
<metadata>
Created by potrace 1.14, written by Peter Selinger 2001-2017
</metadata>
<g transform="translate(0.000000,97.000000) scale(0.100000,-0.100000)"
fill="#000000" stroke="none">
<path d="M365 956 c-172 -44 -305 -176 -351 -348 -20 -77 -13 -218 15 -301 44
-132 158 -245 286 -286 52 -17 93 -19 317 -20 282 -2 309 3 322 54 13 52 5
497 -10 554 -44 166 -171 296 -337 345 -57 16 -182 18 -242 2z m216 -163 c75
-24 159 -107 184 -183 62 -186 -21 -381 -187 -436 -63 -21 -165 -15 -228 13
-171 76 -233 320 -123 486 77 117 216 164 354 120z"/>
</g>
</svg>
